<?xml version="1.0" standalone="no"?>
<!DOCTYPE svg PUBLIC "-//W3C//DTD SVG 20010904//EN"
 "http://www.w3.org/TR/2001/REC-SVG-20010904/DTD/svg10.dtd">
<svg version="1.0" xmlns="http://www.w3.org/2000/svg"
 width="2000.000000pt" height="854.000000pt" viewBox="0 0 2000.000000 854.000000"
 preserveAspectRatio="xMidYMid meet">

<g transform="translate(0.000000,854.000000) scale(0.100000,-0.100000)"
fill="#000000" stroke="none">
<path d="M1958 7343 l-3 -788 -792 -3 -793 -2 0 -3035 0 -3035 3035 0 3035 0
0 790 0 790 790 0 790 0 0 3035 0 3035 -3030 0 -3030 0 -2 -787z m2082 -1088
c0 -861 -3 -1565 -7 -1565 -5 0 -405 397 -890 882 l-883 883 0 682 0 683 890
0 890 0 0 -1565z m3678 -112 l-3 -1678 -1685 0 -1685 0 -3 1678 -2 1677 1690
0 1690 0 -2 -1677z m-4790 -786 c485 -485 882 -885 882 -890 0 -4 -704 -7
-1565 -7 l-1565 0 0 890 0 890 683 0 682 0 883 -883z m1110 -2884 l-3 -1688
-1675 0 -1675 0 -3 1688 -2 1687 1680 0 1680 0 -2 -1687z m3677 787 l0 -895
-680 -3 -680 -2 -892 892 c-491 491 -893 896 -893 901 0 4 708 6 1573 5 l1572
-3 0 -895z m-2467 -223 l892 -892 -2 -680 -3 -680 -895 0 -895 0 -3 1573 c-1
864 1 1572 5 1572 5 0 410 -402 901 -893z"/>
<path d="M11677 3540 c-104 -26 -196 -100 -242 -195 -42 -85 -56 -152 -62
-295 -11 -297 49 -412 347 -654 176 -144 224 -202 256 -312 23 -79 24 -268 1
-344 -28 -96 -106 -148 -200 -133 -56 9 -99 42 -127 98 -22 43 -25 66 -29 173
l-3 122 -144 0 -144 0 0 -52 c2 -377 115 -546 390 -581 280 -35 466 82 535
338 26 93 31 319 11 435 -36 209 -110 304 -425 549 -137 107 -177 173 -187
312 -11 146 22 256 86 291 72 38 156 13 193 -56 18 -34 22 -62 25 -163 l4
-123 145 0 145 0 -7 118 c-15 261 -72 374 -224 445 -61 29 -76 31 -186 34 -66
1 -137 -2 -158 -7z"/>
<path d="M13381 3534 c-166 -44 -273 -167 -319 -365 -15 -66 -17 -144 -17
-729 1 -721 3 -745 63 -875 54 -113 128 -172 250 -196 164 -31 323 28 385 145
l21 41 9 -82 9 -83 114 0 114 0 0 590 0 590 -250 0 -250 0 0 -120 0 -119 103
-3 102 -3 0 -255 c0 -290 -10 -347 -69 -406 -65 -65 -169 -68 -237 -7 -73 66
-73 60 -77 743 -3 644 1 732 40 803 34 60 68 80 142 85 133 9 182 -48 199
-233 l10 -115 140 0 140 0 -6 118 c-16 285 -111 428 -319 477 -79 19 -226 18
-297 -1z"/>
<path d="M15817 3540 c-104 -26 -196 -100 -242 -195 -42 -85 -56 -152 -62
-295 -11 -297 49 -412 347 -654 176 -144 224 -202 256 -312 23 -79 24 -268 1
-344 -28 -96 -106 -148 -200 -133 -56 9 -99 42 -127 98 -22 43 -25 66 -29 173
l-3 122 -144 0 -144 0 0 -52 c2 -377 115 -546 390 -581 280 -35 466 82 535
338 26 93 31 319 11 435 -36 209 -110 304 -425 549 -137 107 -177 173 -187
312 -11 146 22 256 86 291 72 38 156 13 193 -56 18 -34 22 -62 25 -163 l4
-123 145 0 145 0 -7 118 c-15 261 -72 374 -224 445 -61 29 -76 31 -186 34 -66
1 -137 -2 -158 -7z"/>
<path d="M9160 2455 l0 -1067 283 4 c308 5 334 9 450 71 106 56 177 163 214
322 16 73 18 132 18 695 0 553 -2 622 -17 683 -47 181 -132 278 -288 329 -59
20 -91 22 -362 26 l-298 4 0 -1067z m538 799 c49 -19 102 -77 122 -131 19 -50
27 -1162 10 -1264 -17 -98 -57 -161 -124 -194 -47 -23 -68 -27 -158 -28 l-103
-2 -3 810 c-1 446 0 816 3 824 8 19 195 9 253 -15z"/>
<path d="M10390 2455 l0 -1065 393 0 394 0 16 118 c10 64 17 123 17 130 0 9
-61 12 -270 12 l-270 0 0 370 0 370 240 0 240 0 0 130 0 130 -240 0 -240 0 0
305 0 305 250 0 250 0 0 130 0 130 -390 0 -390 0 0 -1065z"/>
<path d="M12500 2455 l0 -1065 140 0 140 0 0 1065 0 1065 -140 0 -140 0 0
-1065z"/>
<path d="M14280 2455 l0 -1065 137 0 136 0 -6 743 c-4 408 -9 771 -12 807 -4
43 51 -155 164 -595 92 -363 185 -726 206 -807 l39 -148 158 0 158 0 0 1065 0
1065 -131 0 -132 0 7 -742 c3 -409 9 -759 12 -778 4 -19 4 -32 0 -29 -3 3 -55
203 -115 445 -60 241 -144 570 -187 729 -42 160 -81 309 -87 333 l-10 42 -169
0 -168 0 0 -1065z"/>
</g>
</svg>
